<?xml version="1.0" encoding="UTF-8" standalone="no"?>
<!DOCTYPE svg PUBLIC "-//W3C//DTD SVG 1.1//EN"
 "http://www.w3.org/Graphics/SVG/1.1/DTD/svg11.dtd">
<!-- Generated by graphviz version 2.40.1 (20161225.0304)
 -->
<!-- Title: %0 Pages: 1 -->
<svg width="351pt" height="514pt"
 viewBox="0.00 0.00 351.10 513.60" xmlns="http://www.w3.org/2000/svg" xmlns:xlink="http://www.w3.org/1999/xlink">
<g id="graph0" class="graph" transform="scale(1 1) rotate(0) translate(4 509.6)">
<title>%0</title>
<polygon fill="#ffffff" stroke="transparent" points="-4,4 -4,-509.6 347.101,-509.6 347.101,4 -4,4"/>
<g id="clust1" class="cluster">
<title>cluster</title>
<polygon fill="none" stroke="#ffffff" points="8,-8 8,-497.6 144,-497.6 144,-8 8,-8"/>
</g>
<!-- SC -->
<g id="node1" class="node">
<title>SC</title>
<polygon fill="none" stroke="#ffffff" points="136.2148,-489.6 15.7852,-489.6 15.7852,-453.6 136.2148,-453.6 136.2148,-489.6"/>
<text text-anchor="middle" x="76" y="-467.4" font-family="Arial" font-size="14.00" fill="#000000">SOURCE CODE</text>
</g>
<!-- LA -->
<g id="node2" class="node">
<title>LA</title>
<polygon fill="none" stroke="#000000" points="131.4702,-417.6 20.5298,-417.6 20.5298,-381.6 131.4702,-381.6 131.4702,-417.6"/>
<text text-anchor="middle" x="76" y="-395.4" font-family="Times,serif" font-size="14.00" fill="#000000">Lexical Analysis</text>
</g>
<!-- SC&#45;&gt;LA -->
<g id="edge1" class="edge">
<title>SC&#45;&gt;LA</title>
<path fill="none" stroke="#000000" d="M76,-453.4314C76,-445.731 76,-436.5743 76,-428.0166"/>
<polygon fill="#000000" stroke="#000000" points="79.5001,-428.0132 76,-418.0133 72.5001,-428.0133 79.5001,-428.0132"/>
</g>
<!-- LI -->
<g id="node3" class="node">
<title>LI</title>
<polygon fill="none" stroke="#ffffff" points="136.24,-345.6 15.76,-345.6 15.76,-309.6 136.24,-309.6 136.24,-345.6"/>
<text text-anchor="middle" x="76" y="-323.4" font-family="Arial" font-size="14.00" fill="#000000">LEXICAL ITEMS</text>
</g>
<!-- LA&#45;&gt;LI -->
<g id="edge2" class="edge">
<title>LA&#45;&gt;LI</title>
<path fill="none" stroke="#000000" d="M76,-381.4314C76,-373.731 76,-364.5743 76,-356.0166"/>
<polygon fill="#000000" stroke="#000000" points="79.5001,-356.0132 76,-346.0133 72.5001,-356.0133 79.5001,-356.0132"/>
</g>
<!-- SS -->
<g id="node8" class="node">
<title>SS</title>
<polygon fill="none" stroke="#ffffff" points="343.2022,-201.4019 236.7978,-201.4019 236.7978,-160.1981 343.2022,-160.1981 343.2022,-201.4019"/>
<text text-anchor="middle" x="290" y="-185" font-family="Arial" font-size="14.00" fill="#000000">SYMBOL </text>
<text text-anchor="middle" x="290" y="-168.2" font-family="Arial" font-size="14.00" fill="#000000"> STRUCTURE</text>
</g>
<!-- LA&#45;&gt;SS -->
<g id="edge7" class="edge">
<title>LA:e&#45;&gt;SS</title>
<path fill="none" stroke="#000000" d="M131,-399.6C222.8848,-399.6 267.1994,-271.7623 282.9814,-211.5185"/>
<polygon fill="#000000" stroke="#000000" points="286.3858,-212.3318 285.4376,-201.7795 279.5983,-210.6199 286.3858,-212.3318"/>
</g>
<!-- SA -->
<g id="node4" class="node">
<title>SA</title>
<polygon fill="none" stroke="#000000" points="129.8801,-273.6 22.1199,-273.6 22.1199,-237.6 129.8801,-237.6 129.8801,-273.6"/>
<text text-anchor="middle" x="76" y="-251.4" font-family="Times,serif" font-size="14.00" fill="#000000">Syntax Analysis</text>
</g>
<!-- LI&#45;&gt;SA -->
<g id="edge3" class="edge">
<title>LI&#45;&gt;SA</title>
<path fill="none" stroke="#000000" d="M76,-309.4314C76,-301.731 76,-292.5743 76,-284.0166"/>
<polygon fill="#000000" stroke="#000000" points="79.5001,-284.0132 76,-274.0133 72.5001,-284.0133 79.5001,-284.0132"/>
</g>
<!-- PT -->
<g id="node5" class="node">
<title>PT</title>
<polygon fill="none" stroke="#ffffff" points="129.1765,-198.8 24.8235,-198.8 24.8235,-162.8 129.1765,-162.8 129.1765,-198.8"/>
<text text-anchor="middle" x="77" y="-176.6" font-family="Arial" font-size="14.00" fill="#000000">PARSE TREE</text>
</g>
<!-- SA&#45;&gt;PT -->
<g id="edge4" class="edge">
<title>SA&#45;&gt;PT</title>
<path fill="none" stroke="#000000" d="M76.2421,-237.493C76.3555,-229.0112 76.4932,-218.7062 76.62,-209.2204"/>
<polygon fill="#000000" stroke="#000000" points="80.1226,-209.0454 76.7567,-198.9995 73.1232,-208.9518 80.1226,-209.0454"/>
</g>
<!-- CG -->
<g id="node6" class="node">
<title>CG</title>
<polygon fill="none" stroke="#000000" points="134.7437,-124 23.2563,-124 23.2563,-88 134.7437,-88 134.7437,-124"/>
<text text-anchor="middle" x="79" y="-101.8" font-family="Times,serif" font-size="14.00" fill="#000000">Code Generation</text>
</g>
<!-- PT&#45;&gt;CG -->
<g id="edge5" class="edge">
<title>PT&#45;&gt;CG</title>
<path fill="none" stroke="#000000" d="M77.4841,-162.693C77.7109,-154.2112 77.9865,-143.9062 78.2401,-134.4204"/>
<polygon fill="#000000" stroke="#000000" points="81.7448,-134.2895 78.5134,-124.1995 74.7473,-134.1023 81.7448,-134.2895"/>
</g>
<!-- PT&#45;&gt;SS -->
<g id="edge8" class="edge">
<title>PT&#45;&gt;SS</title>
<path fill="none" stroke="#000000" d="M129.418,-180.8C161.8206,-180.8 194.2232,-180.8 226.6258,-180.8"/>
<polygon fill="#000000" stroke="#000000" points="226.6818,-184.3001 236.6817,-180.8 226.6817,-177.3001 226.6818,-184.3001"/>
</g>
<!-- OC -->
<g id="node7" class="node">
<title>OC</title>
<polygon fill="none" stroke="#ffffff" points="133.432,-52 24.568,-52 24.568,-16 133.432,-16 133.432,-52"/>
<text text-anchor="middle" x="79" y="-29.8" font-family="Times,serif" font-size="14.00" fill="#000000">OBJECT CODE</text>
</g>
<!-- CG&#45;&gt;OC -->
<g id="edge6" class="edge">
<title>CG&#45;&gt;OC</title>
<path fill="none" stroke="#000000" d="M79,-87.8314C79,-80.131 79,-70.9743 79,-62.4166"/>
<polygon fill="#000000" stroke="#000000" points="82.5001,-62.4132 79,-52.4133 75.5001,-62.4133 82.5001,-62.4132"/>
</g>
<!-- SS&#45;&gt;CG -->
<g id="edge9" class="edge">
<title>SS&#45;&gt;CG:e</title>
<path fill="none" stroke="#000000" d="M265.179,-160.1626C237.957,-139.5357 191.907,-110.3319 145.2686,-106.4355"/>
<polygon fill="#000000" stroke="#000000" points="145.1394,-102.927 135,-106 144.8427,-109.9207 145.1394,-102.927"/>
</g>
</g>
</svg>
